<?xml version="1.0" standalone="no"?>
<!DOCTYPE svg PUBLIC "-//W3C//DTD SVG 20010904//EN"
 "http://www.w3.org/TR/2001/REC-SVG-20010904/DTD/svg10.dtd">
<svg version="1.0" xmlns="http://www.w3.org/2000/svg"
 width="300.000000pt" height="300.000000pt" viewBox="0 0 300.000000 300.000000"
 preserveAspectRatio="xMidYMid meet">
<metadata>
Created by potrace 1.11, written by Peter Selinger 2001-2013
</metadata>
<g transform="translate(0.000000,300.000000) scale(0.100000,-0.100000)"
fill="#000000" stroke="none">
<path d="M1330 2963 c-626 -67 -1139 -523 -1277 -1136 -44 -196 -47 -445 -8
-637 121 -594 610 -1058 1227 -1164 139 -24 353 -22 472 4 494 109 906 431
1115 870 79 167 111 324 111 548 -1 279 -71 592 -175 778 -131 234 -468 519
-750 634 -213 88 -489 127 -715 103z m470 -51 c288 -68 527 -209 785 -467 243
-242 341 -513 352 -980 4 -160 2 -217 -11 -288 -44 -233 -166 -454 -365 -660
-218 -225 -465 -372 -759 -450 -107 -28 -130 -31 -277 -31 -125 0 -184 5 -270
22 -590 117 -1026 516 -1165 1065 -71 280 -60 565 30 838 74 223 177 389 344
554 216 216 475 350 776 405 141 26 431 22 560 -8z"/>
<path d="M2125 2392 c-88 -53 -467 -272 -843 -487 -375 -215 -694 -400 -709
-411 l-26 -20 22 -74 c113 -374 439 -723 814 -869 118 -46 259 -84 280 -75 36
13 337 922 542 1634 109 380 111 386 93 393 -8 2 -86 -38 -173 -91z m-1378
-844 c-3 -8 -6 -5 -6 6 -1 11 2 17 5 13 3 -3 4 -12 1 -19z m43 -195 c39 -78
126 -200 213 -297 161 -179 420 -348 645 -421 47 -15 63 -31 46 -48 -9 -9
-197 59 -284 103 -308 155 -552 420 -700 759 l-32 75 22 18 23 19 19 -73 c10
-40 32 -101 48 -135z m-100 98 c0 -5 -10 -11 -22 -15 -35 -9 -88 -7 -88 3 0 9
17 12 93 19 9 1 17 -2 17 -7z m20 -40 c0 -11 -36 -21 -77 -21 -40 0 -44 17 -5
23 51 8 82 7 82 -2z m14 -40 c6 -9 -48 -21 -93 -21 -31 0 -17 16 19 23 44 8
69 7 74 -2z m21 -41 c6 -10 -17 -17 -78 -23 -47 -4 -44 16 4 24 53 10 67 10
74 -1z m13 -32 c-5 -15 -99 -29 -112 -17 -9 8 14 15 69 22 17 2 34 5 38 6 5 0
7 -5 5 -11z m22 -47 c0 -6 -6 -11 -14 -11 -7 0 -33 -3 -58 -6 -33 -5 -46 -3
-50 7 -4 11 9 15 58 17 40 2 64 -1 64 -7z m30 -39 c0 -20 -125 -29 -133 -9 -3
9 14 13 64 15 38 2 69 -1 69 -6z m20 -41 c0 -10 -49 -21 -98 -21 -37 0 -35 14
3 23 35 8 95 7 95 -2z m30 -41 c0 -5 -11 -10 -25 -10 -14 0 -26 0 -27 0 -2 -1
-20 -5 -40 -9 -29 -7 -38 -6 -38 4 0 8 8 16 18 18 34 9 112 7 112 -3z m24 -29
c6 -9 -11 -14 -93 -27 -34 -5 -42 -3 -39 7 4 12 42 21 110 27 9 1 19 -2 22 -7z
m26 -40 c0 -11 -98 -25 -126 -19 -17 4 -16 6 6 16 31 13 120 15 120 3z m33
-42 c-14 -14 -119 -28 -135 -18 -10 6 -9 9 2 13 53 18 149 21 133 5z m37 -43
c0 -17 -127 -33 -142 -18 -7 7 5 13 38 17 27 3 56 8 64 9 32 7 40 6 40 -8z
m40 -40 c0 -9 -20 -15 -66 -20 -95 -10 -108 8 -17 24 72 12 83 11 83 -4z m-32
-43 c52 7 76 7 84 -1 11 -11 7 -12 -100 -28 -28 -4 -31 -8 -21 -20 7 -9 16
-11 23 -5 16 12 146 24 146 12 0 -13 -18 -18 -91 -26 l-64 -7 -40 43 c-22 24
-33 38 -25 32 11 -7 37 -7 88 0z m182 -87 c0 -9 -21 -15 -71 -20 -40 -3 -74
-4 -77 -1 -10 10 10 19 56 26 77 11 92 10 92 -5z m60 -46 c0 -17 -142 -32
-150 -15 -3 5 9 13 25 16 48 10 125 10 125 -1z m70 -40 c0 -5 -21 -11 -47 -15
-27 -3 -62 -9 -79 -14 -21 -6 -36 -4 -49 5 -16 12 -16 13 6 19 43 10 144 21
157 17 6 -2 12 -8 12 -12z m70 -39 c0 -11 -28 -18 -114 -27 -56 -5 -68 -4 -64
7 7 21 178 40 178 20z m65 -32 c4 -6 5 -12 3 -14 -5 -5 -170 -27 -174 -23 -13
14 24 31 82 37 38 5 72 9 76 10 4 0 10 -4 13 -10z m92 -46 c5 -13 -23 -19
-121 -29 -56 -5 -68 -4 -64 7 3 9 33 18 84 25 88 13 96 12 101 -3z m111 -35
c-5 -14 -61 -27 -120 -27 -21 -1 -38 -5 -38 -10 0 -5 -9 -7 -20 -4 -33 9 -23
32 18 38 20 4 44 8 52 10 8 1 37 3 63 4 35 1 47 -3 45 -11z m34 -40 c-15 -15
-142 -23 -142 -10 0 6 21 14 48 17 26 3 54 7 62 9 24 4 43 -5 32 -16z"/>
</g>
</svg>
